<?xml version="1.0" encoding="UTF-8" standalone="no"?>
<!DOCTYPE svg PUBLIC "-//W3C//DTD SVG 1.1//EN"
 "http://www.w3.org/Graphics/SVG/1.1/DTD/svg11.dtd">
<!-- Generated by graphviz version 12.1.2 (20240928.0832)
 -->
<!-- Pages: 1 -->
<svg width="448pt" height="1137pt"
 viewBox="0.00 0.00 448.34 1136.57" xmlns="http://www.w3.org/2000/svg" xmlns:xlink="http://www.w3.org/1999/xlink">
<g id="graph0" class="graph" transform="scale(1 1) rotate(0) translate(4 1132.57)">
<polygon fill="white" stroke="none" points="-4,4 -4,-1132.57 444.34,-1132.57 444.34,4 -4,4"/>
<!-- &#45;1 -->
<g id="node1" class="node">
<title>&#45;1</title>
<ellipse fill="#a0cbe2" stroke="black" cx="217.9" cy="-312.4" rx="29.88" ry="29.88"/>
<text text-anchor="middle" x="217.9" y="-309.1" font-family="Times New Roman,serif" font-size="9.00">Gender</text>
</g>
<!-- 0 -->
<g id="node12" class="node">
<title>0</title>
<ellipse fill="#ff5733" stroke="black" cx="413.12" cy="-545.4" rx="27.22" ry="27.22"/>
<text text-anchor="middle" x="413.12" y="-542.1" font-family="Times New Roman,serif" font-size="9.00">output</text>
</g>
<!-- &#45;1&#45;&gt;0 -->
<g id="edge13" class="edge">
<title>&#45;1&#45;&gt;0</title>
<path fill="none" stroke="green" stroke-width="0.61" d="M243.79,-328.18C253.21,-334.76 263.69,-342.86 272.17,-351.4 322.56,-402.14 368.48,-472.39 393.14,-512.95"/>
<polygon fill="green" stroke="green" stroke-width="0.61" points="390.02,-514.55 398.18,-521.31 396.02,-510.94 390.02,-514.55"/>
</g>
<!-- 15 -->
<g id="node13" class="node">
<title>15</title>
<ellipse fill="#a0cbe2" stroke="black" cx="329.03" cy="-592.4" rx="17.68" ry="17.68"/>
<text text-anchor="middle" x="329.03" y="-589.1" font-family="Times New Roman,serif" font-size="9.00">15</text>
</g>
<!-- &#45;1&#45;&gt;15 -->
<g id="edge1" class="edge">
<title>&#45;1&#45;&gt;15</title>
<path fill="none" stroke="green" stroke-width="0.37" d="M244.89,-326.07C254.81,-332.51 265.36,-341.06 272.17,-351.4 316.41,-418.43 325.83,-516.14 327.69,-563.93"/>
<polygon fill="green" stroke="green" stroke-width="0.37" points="324.19,-563.97 327.99,-573.86 331.18,-563.76 324.19,-563.97"/>
</g>
<!-- 420 -->
<g id="node16" class="node">
<title>420</title>
<ellipse fill="#a0cbe2" stroke="black" cx="329.03" cy="-312.4" rx="20.86" ry="20.86"/>
<text text-anchor="middle" x="329.03" y="-309.1" font-family="Times New Roman,serif" font-size="9.00">420</text>
</g>
<!-- &#45;1&#45;&gt;420 -->
<g id="edge36" class="edge">
<title>&#45;1&#45;&gt;420</title>
<path fill="none" stroke="red" stroke-width="0.39" d="M248.15,-312.4C263.29,-312.4 281.77,-312.4 297.14,-312.4"/>
<polygon fill="red" stroke="red" stroke-width="0.39" points="297.11,-315.9 307.11,-312.4 297.11,-308.9 297.11,-315.9"/>
</g>
<!-- &#45;2 -->
<g id="node2" class="node">
<title>&#45;2</title>
<ellipse fill="#a0cbe2" stroke="black" cx="63.82" cy="-776.4" rx="31.47" ry="31.47"/>
<text text-anchor="middle" x="63.82" y="-773.1" font-family="Times New Roman,serif" font-size="9.00">Married</text>
</g>
<!-- &#45;2&#45;&gt;0 -->
<g id="edge14" class="edge">
<title>&#45;2&#45;&gt;0</title>
<path fill="none" stroke="red" stroke-width="0.27" d="M69.72,-807.54C81.97,-880.8 116.32,-1060.52 163.63,-1095.4 230.61,-1144.77 294.78,-1138.74 349.89,-1076.4 382.57,-1039.43 403.89,-697.6 410.18,-582.8"/>
<polygon fill="red" stroke="red" stroke-width="0.27" points="413.65,-583.31 410.7,-573.14 406.66,-582.93 413.65,-583.31"/>
</g>
<!-- &#45;2&#45;&gt;15 -->
<g id="edge2" class="edge">
<title>&#45;2&#45;&gt;15</title>
<path fill="none" stroke="green" stroke-width="0.36" stroke-dasharray="1,5" d="M94.66,-768.47C148.72,-753.92 258.53,-723.31 272.17,-711.4 299.79,-687.28 314.75,-646.56 322.05,-619.58"/>
<polygon fill="green" stroke="green" stroke-width="0.36" points="325.38,-620.72 324.44,-610.16 318.59,-619 325.38,-620.72"/>
</g>
<!-- 339 -->
<g id="node15" class="node">
<title>339</title>
<ellipse fill="#a0cbe2" stroke="black" cx="217.9" cy="-681.4" rx="20.86" ry="20.86"/>
<text text-anchor="middle" x="217.9" y="-678.1" font-family="Times New Roman,serif" font-size="9.00">339</text>
</g>
<!-- &#45;2&#45;&gt;339 -->
<g id="edge28" class="edge">
<title>&#45;2&#45;&gt;339</title>
<path fill="none" stroke="red" stroke-width="0.11" stroke-dasharray="1,5" d="M90.96,-760.07C119.01,-742.55 163.27,-714.9 191.17,-697.47"/>
<polygon fill="red" stroke="red" stroke-width="0.11" points="192.83,-700.56 199.46,-692.29 189.12,-694.62 192.83,-700.56"/>
</g>
<!-- &#45;3 -->
<g id="node3" class="node">
<title>&#45;3</title>
<ellipse fill="#a0cbe2" stroke="black" cx="217.9" cy="-1045.4" rx="41.01" ry="41.01"/>
<text text-anchor="middle" x="217.9" y="-1042.1" font-family="Times New Roman,serif" font-size="9.00">Dependents</text>
</g>
<!-- &#45;3&#45;&gt;0 -->
<g id="edge15" class="edge">
<title>&#45;3&#45;&gt;0</title>
<path fill="none" stroke="green" stroke-width="0.27" stroke-dasharray="1,5" d="M255.97,-1061.28C285.06,-1070.98 324.71,-1077.7 349.89,-1055.4 385.23,-1024.11 404.67,-695.89 410.34,-583.16"/>
<polygon fill="green" stroke="green" stroke-width="0.27" points="413.83,-583.51 410.83,-573.34 406.84,-583.16 413.83,-583.51"/>
</g>
<!-- &#45;3&#45;&gt;15 -->
<g id="edge3" class="edge">
<title>&#45;3&#45;&gt;15</title>
<path fill="none" stroke="red" stroke-width="0.37" stroke-dasharray="1,5" d="M242.93,-1012.7C253.51,-996.76 265.11,-976.87 272.17,-957.4 315.7,-837.45 325.31,-683.36 327.43,-620.74"/>
<polygon fill="red" stroke="red" stroke-width="0.37" points="330.92,-621.14 327.72,-611.04 323.93,-620.93 330.92,-621.14"/>
</g>
<!-- 488 -->
<g id="node17" class="node">
<title>488</title>
<ellipse fill="#a0cbe2" stroke="black" cx="329.03" cy="-1025.4" rx="20.86" ry="20.86"/>
<text text-anchor="middle" x="329.03" y="-1022.1" font-family="Times New Roman,serif" font-size="9.00">488</text>
</g>
<!-- &#45;3&#45;&gt;488 -->
<g id="edge34" class="edge">
<title>&#45;3&#45;&gt;488</title>
<path fill="none" stroke="red" stroke-width="0.59" d="M258.61,-1038.12C271.49,-1035.76 285.56,-1033.18 297.65,-1030.97"/>
<polygon fill="red" stroke="red" stroke-width="0.59" points="298.02,-1034.46 307.23,-1029.21 296.76,-1027.57 298.02,-1034.46"/>
</g>
<!-- &#45;4 -->
<g id="node4" class="node">
<title>&#45;4</title>
<ellipse fill="#a0cbe2" stroke="black" cx="217.9" cy="-912.4" rx="36.24" ry="36.24"/>
<text text-anchor="middle" x="217.9" y="-909.1" font-family="Times New Roman,serif" font-size="9.00">Education</text>
</g>
<!-- &#45;4&#45;&gt;0 -->
<g id="edge16" class="edge">
<title>&#45;4&#45;&gt;0</title>
<path fill="none" stroke="green" stroke-width="0.24" d="M248.02,-891.88C256.58,-884.84 265.45,-876.43 272.17,-867.4 340.76,-775.21 384.22,-644.2 402.37,-581.52"/>
<polygon fill="green" stroke="green" stroke-width="0.24" points="405.69,-582.63 405.06,-572.05 398.96,-580.71 405.69,-582.63"/>
</g>
<!-- &#45;4&#45;&gt;15 -->
<g id="edge4" class="edge">
<title>&#45;4&#45;&gt;15</title>
<path fill="none" stroke="green" stroke-width="0.31" d="M248.93,-892.9C257.65,-885.86 266.37,-877.19 272.17,-867.4 319.7,-787.18 327.39,-673.2 328.24,-620.78"/>
<polygon fill="green" stroke="green" stroke-width="0.31" points="331.73,-621.06 328.32,-611.03 324.74,-621 331.73,-621.06"/>
</g>
<!-- &#45;5 -->
<g id="node5" class="node">
<title>&#45;5</title>
<ellipse fill="#a0cbe2" stroke="black" cx="217.9" cy="-808.4" rx="50.03" ry="50.03"/>
<text text-anchor="middle" x="217.9" y="-805.1" font-family="Times New Roman,serif" font-size="9.00">Self_Employed</text>
</g>
<!-- &#45;5&#45;&gt;0 -->
<g id="edge17" class="edge">
<title>&#45;5&#45;&gt;0</title>
<path fill="none" stroke="green" stroke-width="0.46" stroke-dasharray="1,5" d="M250.91,-770.27C258.03,-761.53 265.45,-752.22 272.17,-743.4 316.28,-685.49 364.65,-615.47 391.4,-576.12"/>
<polygon fill="green" stroke="green" stroke-width="0.46" points="393.98,-578.56 396.7,-568.32 388.19,-574.63 393.98,-578.56"/>
</g>
<!-- &#45;5&#45;&gt;15 -->
<g id="edge5" class="edge">
<title>&#45;5&#45;&gt;15</title>
<path fill="none" stroke="red" stroke-width="0.19" d="M252.73,-772.09C259.76,-763.42 266.68,-753.91 272.17,-744.4 295.77,-703.48 312.46,-650.8 321.14,-619.42"/>
<polygon fill="red" stroke="red" stroke-width="0.19" points="324.47,-620.49 323.7,-609.93 317.71,-618.67 324.47,-620.49"/>
</g>
<!-- &#45;6 -->
<g id="node6" class="node">
<title>&#45;6</title>
<ellipse fill="#a0cbe2" stroke="black" cx="217.9" cy="-414.4" rx="54.27" ry="54.27"/>
<text text-anchor="middle" x="217.9" y="-411.1" font-family="Times New Roman,serif" font-size="9.00">ApplicantIncome</text>
</g>
<!-- &#45;6&#45;&gt;0 -->
<g id="edge18" class="edge">
<title>&#45;6&#45;&gt;0</title>
<path fill="none" stroke="red" stroke-width="0.32" d="M263.23,-444.45C299.38,-468.96 349.51,-502.95 381.38,-524.56"/>
<polygon fill="red" stroke="red" stroke-width="0.32" points="379.22,-527.32 389.46,-530.04 383.15,-521.53 379.22,-527.32"/>
</g>
<!-- &#45;6&#45;&gt;15 -->
<g id="edge6" class="edge">
<title>&#45;6&#45;&gt;15</title>
<path fill="none" stroke="red" stroke-width="0.47" stroke-dasharray="1,5" d="M253.47,-455.9C259.99,-464.45 266.53,-473.54 272.17,-482.4 289.74,-509.97 306.21,-543.76 316.66,-566.56"/>
<polygon fill="red" stroke="red" stroke-width="0.47" points="313.41,-567.88 320.72,-575.55 319.79,-565 313.41,-567.88"/>
</g>
<!-- &#45;7 -->
<g id="node7" class="node">
<title>&#45;7</title>
<ellipse fill="#a0cbe2" stroke="black" cx="63.82" cy="-667.4" rx="59.57" ry="59.57"/>
<text text-anchor="middle" x="63.82" y="-664.1" font-family="Times New Roman,serif" font-size="9.00">CoapplicantIncome</text>
</g>
<!-- &#45;7&#45;&gt;0 -->
<g id="edge19" class="edge">
<title>&#45;7&#45;&gt;0</title>
<path fill="none" stroke="green" stroke-width="0.48" stroke-dasharray="1,5" d="M108.3,-707.57C115.77,-716.4 122.7,-726.19 127.63,-736.4 170.92,-826.01 87.82,-892.93 163.63,-957.4 200.38,-988.65 231.61,-983.51 272.17,-957.4 337.31,-915.45 387.91,-676.2 405.45,-582.77"/>
<polygon fill="green" stroke="green" stroke-width="0.48" points="408.86,-583.56 407.25,-573.09 401.98,-582.28 408.86,-583.56"/>
</g>
<!-- &#45;7&#45;&gt;15 -->
<g id="edge7" class="edge">
<title>&#45;7&#45;&gt;15</title>
<path fill="none" stroke="green" stroke-width="0.77" d="M121.61,-651.22C177.12,-635.4 259.23,-612 301.2,-600.04"/>
<polygon fill="green" stroke="green" stroke-width="0.77" points="301.9,-603.48 310.55,-597.38 299.98,-596.75 301.9,-603.48"/>
</g>
<!-- 158 -->
<g id="node14" class="node">
<title>158</title>
<ellipse fill="#a0cbe2" stroke="black" cx="217.9" cy="-545.4" rx="20.86" ry="20.86"/>
<text text-anchor="middle" x="217.9" y="-542.1" font-family="Times New Roman,serif" font-size="9.00">158</text>
</g>
<!-- &#45;7&#45;&gt;158 -->
<g id="edge27" class="edge">
<title>&#45;7&#45;&gt;158</title>
<path fill="none" stroke="green" stroke-width="0.66" d="M110.86,-630.46C137.75,-608.89 170.61,-582.53 192.56,-564.93"/>
<polygon fill="green" stroke="green" stroke-width="0.66" points="194.57,-567.8 200.18,-558.81 190.19,-562.34 194.57,-567.8"/>
</g>
<!-- &#45;7&#45;&gt;339 -->
<g id="edge31" class="edge">
<title>&#45;7&#45;&gt;339</title>
<path fill="none" stroke="red" stroke-width="0.49" d="M123.62,-672.81C144.97,-674.78 168.25,-676.92 186.21,-678.57"/>
<polygon fill="red" stroke="red" stroke-width="0.49" points="185.88,-682.06 196.16,-679.49 186.52,-675.09 185.88,-682.06"/>
</g>
<!-- &#45;8 -->
<g id="node8" class="node">
<title>&#45;8</title>
<ellipse fill="#a0cbe2" stroke="black" cx="63.82" cy="-545.4" rx="44.72" ry="44.72"/>
<text text-anchor="middle" x="63.82" y="-542.1" font-family="Times New Roman,serif" font-size="9.00">LoanAmount</text>
</g>
<!-- &#45;8&#45;&gt;0 -->
<g id="edge20" class="edge">
<title>&#45;8&#45;&gt;0</title>
<path fill="none" stroke="green" stroke-width="0.8" d="M102.07,-521.55C112.05,-513.26 121.7,-503.06 127.63,-491.4 172.91,-402.37 90.24,-111.13 163.63,-43.4 199.08,-10.68 230.64,-18.86 272.17,-43.4 333.79,-79.79 326.22,-116.87 349.89,-184.4 389.58,-297.58 404.56,-439.92 409.7,-507.03"/>
<polygon fill="green" stroke="green" stroke-width="0.8" points="406.19,-506.97 410.41,-516.69 413.17,-506.46 406.19,-506.97"/>
</g>
<!-- &#45;8&#45;&gt;15 -->
<g id="edge8" class="edge">
<title>&#45;8&#45;&gt;15</title>
<path fill="none" stroke="green" stroke-width="0.16" stroke-dasharray="1,5" d="M106.19,-559.89C123.72,-565.52 144.48,-571.54 163.63,-575.4 211.4,-585.02 268.13,-589.36 300.92,-591.19"/>
<polygon fill="green" stroke="green" stroke-width="0.16" points="300.66,-594.68 310.83,-591.7 301.02,-587.69 300.66,-594.68"/>
</g>
<!-- &#45;8&#45;&gt;158 -->
<g id="edge24" class="edge">
<title>&#45;8&#45;&gt;158</title>
<path fill="none" stroke="red" stroke-width="1.06" stroke-dasharray="1,5" d="M108.81,-545.4C133.23,-545.4 163.06,-545.4 185.19,-545.4"/>
<polygon fill="red" stroke="red" stroke-width="1.06" points="185.01,-548.9 195.01,-545.4 185.01,-541.9 185.01,-548.9"/>
</g>
<!-- &#45;9 -->
<g id="node9" class="node">
<title>&#45;9</title>
<ellipse fill="#a0cbe2" stroke="black" cx="63.82" cy="-418.4" rx="63.82" ry="63.82"/>
<text text-anchor="middle" x="63.82" y="-415.1" font-family="Times New Roman,serif" font-size="9.00">Loan_Amount_Term</text>
</g>
<!-- &#45;9&#45;&gt;0 -->
<g id="edge21" class="edge">
<title>&#45;9&#45;&gt;0</title>
<path fill="none" stroke="red" stroke-width="0.43" d="M71.07,-354.9C82.61,-252.61 111,-58.63 163.63,-17.4 201.61,12.35 226.01,-3.38 272.17,-17.4 311.94,-29.47 327.97,-34.09 349.89,-69.4 395.33,-142.59 407.96,-408.03 411.14,-507.45"/>
<polygon fill="red" stroke="red" stroke-width="0.43" points="407.63,-507.37 411.44,-517.26 414.63,-507.16 407.63,-507.37"/>
</g>
<!-- &#45;9&#45;&gt;15 -->
<g id="edge9" class="edge">
<title>&#45;9&#45;&gt;15</title>
<path fill="none" stroke="red" stroke-width="0.65" d="M117.85,-452.72C132.38,-461.38 148.34,-470.24 163.63,-477.4 209.93,-499.05 231.18,-484.87 272.17,-515.4 290.56,-529.08 305.42,-550.56 315.18,-567.35"/>
<polygon fill="red" stroke="red" stroke-width="0.65" points="311.94,-568.72 319.85,-575.75 318.05,-565.31 311.94,-568.72"/>
</g>
<!-- &#45;9&#45;&gt;158 -->
<g id="edge30" class="edge">
<title>&#45;9&#45;&gt;158</title>
<path fill="none" stroke="green" stroke-width="0.3" d="M109.64,-463.13C126.08,-478.72 145.19,-495.92 163.63,-510.4 172.16,-517.09 181.96,-523.79 190.82,-529.5"/>
<polygon fill="green" stroke="green" stroke-width="0.3" points="188.89,-532.43 199.21,-534.82 192.64,-526.51 188.89,-532.43"/>
</g>
<!-- &#45;10 -->
<g id="node10" class="node">
<title>&#45;10</title>
<ellipse fill="#a0cbe2" stroke="black" cx="217.9" cy="-101.4" rx="48.97" ry="48.97"/>
<text text-anchor="middle" x="217.9" y="-98.1" font-family="Times New Roman,serif" font-size="9.00">Credit_History</text>
</g>
<!-- &#45;10&#45;&gt;0 -->
<g id="edge22" class="edge">
<title>&#45;10&#45;&gt;0</title>
<path fill="none" stroke="green" stroke-width="0.22" stroke-dasharray="1,5" d="M256.48,-132.3C286.47,-159.08 327.1,-200.49 349.89,-245.4 394.07,-332.43 406.88,-448.81 410.6,-507.77"/>
<polygon fill="green" stroke="green" stroke-width="0.22" points="407.09,-507.64 411.16,-517.42 414.08,-507.23 407.09,-507.64"/>
</g>
<!-- &#45;10&#45;&gt;15 -->
<g id="edge10" class="edge">
<title>&#45;10&#45;&gt;15</title>
<path fill="none" stroke="red" stroke-width="0.13" stroke-dasharray="1,5" d="M254.92,-133.75C261.65,-141.51 267.9,-150.22 272.17,-159.4 289.31,-196.21 316.9,-474.79 325.43,-564.59"/>
<polygon fill="red" stroke="red" stroke-width="0.13" points="321.93,-564.76 326.36,-574.38 328.9,-564.1 321.93,-564.76"/>
</g>
<!-- &#45;11 -->
<g id="node11" class="node">
<title>&#45;11</title>
<ellipse fill="#a0cbe2" stroke="black" cx="217.9" cy="-216.4" rx="48.44" ry="48.44"/>
<text text-anchor="middle" x="217.9" y="-213.1" font-family="Times New Roman,serif" font-size="9.00">Property_Area</text>
</g>
<!-- &#45;11&#45;&gt;0 -->
<g id="edge23" class="edge">
<title>&#45;11&#45;&gt;0</title>
<path fill="none" stroke="green" stroke-width="0.89" d="M265.07,-228.72C293.59,-238.66 328.67,-255.51 349.89,-282.4 402.14,-348.59 411.69,-451.46 412.75,-506.89"/>
<polygon fill="green" stroke="green" stroke-width="0.89" points="409.25,-506.65 412.85,-516.61 416.25,-506.58 409.25,-506.65"/>
</g>
<!-- &#45;11&#45;&gt;15 -->
<g id="edge11" class="edge">
<title>&#45;11&#45;&gt;15</title>
<path fill="none" stroke="red" stroke-width="0.72" d="M254.61,-248.26C261.36,-255.88 267.7,-264.43 272.17,-273.4 321.11,-371.55 327.9,-505.33 328.36,-563.46"/>
<polygon fill="red" stroke="red" stroke-width="0.72" points="324.86,-563.27 328.38,-573.27 331.86,-563.26 324.86,-563.27"/>
</g>
<!-- &#45;11&#45;&gt;420 -->
<g id="edge32" class="edge">
<title>&#45;11&#45;&gt;420</title>
<path fill="none" stroke="red" stroke-width="0.11" stroke-dasharray="1,5" d="M254.94,-248.1C271.49,-262.66 290.63,-279.49 305.17,-292.28"/>
<polygon fill="red" stroke="red" stroke-width="0.11" points="302.78,-294.84 312.6,-298.82 307.4,-289.59 302.78,-294.84"/>
</g>
<!-- 15&#45;&gt;0 -->
<g id="edge12" class="edge">
<title>15&#45;&gt;0</title>
<path fill="none" stroke="red" stroke-width="0.62" stroke-dasharray="1,5" d="M344.71,-583.99C354.39,-578.45 367.46,-570.97 379.51,-564.06"/>
<polygon fill="red" stroke="red" stroke-width="0.62" points="381.13,-567.17 388.07,-559.16 377.65,-561.1 381.13,-567.17"/>
</g>
<!-- 158&#45;&gt;0 -->
<g id="edge25" class="edge">
<title>158&#45;&gt;0</title>
<path fill="none" stroke="green" stroke-width="0.66" stroke-dasharray="1,5" d="M239.22,-545.4C271.36,-545.4 334.46,-545.4 374.89,-545.4"/>
<polygon fill="green" stroke="green" stroke-width="0.66" points="374.65,-548.9 384.65,-545.4 374.65,-541.9 374.65,-548.9"/>
</g>
<!-- 158&#45;&gt;15 -->
<g id="edge26" class="edge">
<title>158&#45;&gt;15</title>
<path fill="none" stroke="green" stroke-width="0.37" d="M237.42,-553.37C255.33,-561.09 282.64,-572.85 302.59,-581.44"/>
<polygon fill="green" stroke="green" stroke-width="0.37" points="301.18,-584.64 311.75,-585.39 303.95,-578.22 301.18,-584.64"/>
</g>
<!-- 339&#45;&gt;15 -->
<g id="edge29" class="edge">
<title>339&#45;&gt;15</title>
<path fill="none" stroke="red" stroke-width="0.17" d="M236.26,-671.14C246.96,-664.54 260.77,-655.52 272.17,-646.4 285.22,-635.95 298.73,-622.97 309.19,-612.35"/>
<polygon fill="red" stroke="red" stroke-width="0.17" points="311.59,-614.9 316.04,-605.29 306.57,-610.03 311.59,-614.9"/>
</g>
<!-- 420&#45;&gt;0 -->
<g id="edge33" class="edge">
<title>420&#45;&gt;0</title>
<path fill="none" stroke="red" stroke-width="0.27" d="M339.45,-330.99C342.94,-338.21 346.79,-346.6 349.89,-354.4 370.94,-407.35 390.47,-470.52 401.84,-509.29"/>
<polygon fill="red" stroke="red" stroke-width="0.27" points="398.42,-510.06 404.58,-518.68 405.14,-508.1 398.42,-510.06"/>
</g>
<!-- 488&#45;&gt;0 -->
<g id="edge35" class="edge">
<title>488&#45;&gt;0</title>
<path fill="none" stroke="red" stroke-width="0.23" d="M341.5,-1008.2C344.68,-1002.71 347.83,-996.48 349.89,-990.4 399.09,-845.61 409.43,-661.63 411.57,-583.38"/>
<polygon fill="red" stroke="red" stroke-width="0.23" points="415.07,-583.49 411.81,-573.41 408.07,-583.32 415.07,-583.49"/>
</g>
</g>
</svg>
